/* XPM */
static char *_537051805109[] = {
/* columns rows colors chars-per-pixel */
"64 64 99 2 ",
"   c #720507",
".  c #740608",
"X  c #7E080A",
"o  c #771214",
"O  c #7A1315",
"+  c #7D1618",
"@  c #9C0105",
"#  c #9E050A",
"$  c #9F080C",
"%  c #960D10",
"&  c #811417",
"*  c #861518",
"=  c #8C1719",
"-  c #90171A",
";  c #94181B",
":  c #9C1A1D",
">  c #A00B0F",
",  c #A20E12",
"<  c #A31115",
"1  c #A5161A",
"2  c #A51A1E",
"3  c #A71C20",
"4  c #A91D21",
"5  c #A72023",
"6  c #A92325",
"7  c #AA2629",
"8  c #AB2A2D",
"9  c #AE2F32",
"0  c #AE3235",
"q  c #AF373A",
"w  c #B03639",
"e  c #B23C3E",
"r  c #B33E40",
"t  c #B64447",
"y  c #B64648",
"u  c #B74B4D",
"i  c #B94C4E",
"p  c #B94F51",
"a  c #BA5255",
"s  c #BE5759",
"d  c #BE5B5D",
"f  c #BF5F61",
"g  c #AD6D6E",
"h  c #C05D60",
"j  c #C16264",
"k  c #C46769",
"l  c #C46A6B",
"z  c #C76E71",
"x  c #C77275",
"c  c #C87375",
"v  c #C97779",
"b  c #CB7A7C",
"n  c #CC7F80",
"m  c #CC8384",
"M  c #CF8788",
"N  c #C48C8E",
"B  c #CE898B",
"V  c #D28C8D",
"C  c #D38F90",
"Z  c #C9999B",
"A  c #D49293",
"S  c #D69798",
"D  c #D79C9D",
"F  c #D89D9E",
"G  c #D89FA0",
"H  c #CFA5A7",
"J  c #DBA4A5",
"K  c #DCA6A8",
"L  c #DEADAD",
"P  c #CFB9BB",
"I  c #DFB1B2",
"U  c #E0AFB0",
"Y  c #E1B5B5",
"T  c #E2B7B8",
"R  c #E4BCBC",
"E  c #D3C0C1",
"W  c #DFC1C2",
"Q  c #D7C7C8",
"!  c #E6C3C3",
"~  c #E8C5C6",
"^  c #E7CACA",
"/  c #EBCDCD",
"(  c #EED0CF",
")  c #EDD2D3",
"_  c #EFD7D8",
"`  c #EFD9D9",
"'  c #F0D7D7",
"]  c #F1DDDD",
"[  c #F2DFE0",
"{  c #DCEAEB",
"}  c #F4E3E3",
"|  c #F6EBEA",
" . c #F8EEEE",
".. c #FAF3F4",
"X. c #FCF8F7",
"o. c #F1F7F8",
"O. c #F7FAFA",
"+. c #FFFFFF",
"@. c None",
/* pixels */
"@.@.@.@.@.@.@.@.@.@.@.@.@.@.@.@.@.@.@.@.@.@.@.@.@.@.@.@.@.@.@.@.@.@.@.@.@.@.@.@.@.@.@.@.@.@.@.@.@.@.@.@.@.@.@.@.@.@.@.@.@.@.@.@.",
"@.@.@.@.@.@.@.@.@.@.@.@.@.@.@.@.@.@.@.@.@.@.@.@.@.@.@.@.@.@.@.@.@.@.@.@.@.@.@.@.@.@.@.@.@.@.@.@.@.@.@.@.@.@.@.@.@.@.@.@.@.@.@.@.",
"@.@.@.@.@.@.@.@.@.@.@.@.@.@.@.@.@.@.@.@.@.@.@.@.@.@.+ + + O O & 3 3 6 3 4 4 @.@.@.@.@.@.@.@.@.@.@.@.@.@.@.@.@.@.@.@.@.@.@.@.@.@.",
"@.@.@.@.@.@.@.@.@.@.@.@.@.@.@.@.@.@.@.@.@.@.o o o O O o o o O O 2 2 2 2 3 2 2 2 2 2 @.@.@.@.@.@.@.@.@.@.@.@.@.@.@.@.@.@.@.@.@.@.",
"@.@.@.@.@.@.@.@.@.@.@.@.@.@.@.@.@.@.@.@.O O O O O O O O O O O O 3 3 3 3 3 3 3 3 3 3 3 3 @.@.@.@.@.@.@.@.@.@.@.@.@.@.@.@.@.@.@.@.",
"@.@.@.@.@.@.@.@.@.@.@.@.@.@.@.@.@.@.O O O O O O O O O O O O O O 3 4 3 3 3 3 3 3 3 3 3 3 3 3 @.@.@.@.@.@.@.@.@.@.@.@.@.@.@.@.@.@.",
"@.@.@.@.@.@.@.@.@.@.@.@.@.@.@.@.3 + O O O O O O O O O O O O O & 3 3 3 3 3 3 3 3 3 3 3 3 3 3 2 O @.@.@.@.@.@.@.@.@.@.@.@.@.@.@.@.",
"@.@.@.@.@.@.@.@.@.@.@.@.@.@.3 3 3 : o O O O O O O O O O O O O O 3 3 3 3 3 3 3 3 3 3 3 3 3 3 * o O O @.@.@.@.@.@.@.@.@.@.@.@.@.@.",
"@.@.@.@.@.@.@.@.@.@.@.@.@.3 3 3 3 4 = o O O O O O O O O o o o + 3 3 3 3 3 3 3 3 3 3 3 3 3 : O O O O O @.@.@.@.@.@.@.@.@.@.@.@.@.",
"@.@.@.@.@.@.@.@.@.@.@.@.3 3 3 3 3 4 2 O O O O O o o + = - ; : : 3 3 3 3 3 3 3 3 3 3 3 3 3 & O O O O O O @.@.@.@.@.@.@.@.@.@.@.@.",
"@.@.@.@.@.@.@.@.@.@.@.3 3 3 3 3 3 3 5 = o o o & - 2 3 4 4 4 4 3 3 3 3 3 3 3 3 3 3 3 3 4 ; o O O O O O O O @.@.@.@.@.@.@.@.@.@.@.",
"@.@.@.@.@.@.@.@.@.@.3 3 3 3 3 3 3 2 4 3 + & : 2 3 2 3 3 3 2 3 3 3 3 3 3 3 3 3 3 3 3 3 2 O O O O & O O O O O @.@.@.@.@.@.@.@.@.@.",
"@.@.@.@.@.@.@.@.@.3 3 3 3 3 3 3 3 3 3 3 2 3 4 3 3 3 3 3 3 3 3 3 3 3 3 3 3 3 3 3 3 3 4 2 O o O O O O O O O O O @.@.@.@.@.@.@.@.@.",
"@.@.@.@.@.@.@.@.3 3 3 3 3 3 3 3 3 3 3 3 3 3 3 3 3 3 3 3 3 3 3 3 3 3 3 3 3 3 3 3 3 3 3 3 3 = o O O O O O O O O O @.@.@.@.@.@.@.@.",
"@.@.@.@.@.@.@.3 3 3 3 3 3 3 3 3 3 3 3 3 3 3 3 3 3 3 3 3 3 3 3 3 3 3 3 3 3 3 3 3 3 3 3 3 3 3 ; O O O O O O O O O O @.@.@.@.@.@.@.",
"@.@.@.@.@.@.@.3 3 3 3 3 3 3 3 3 3 3 3 3 3 3 3 3 3 3 3 3 3 3 3 2 3 3 3 3 3 3 3 3 3 3 3 3 3 3 4 : O O O O O O O O O @.@.@.@.@.@.@.",
"@.@.@.@.@.@.4 3 3 3 3 3 3 3 3 3 3 3 3 3 3 3 3 3 3 3 3 3 3 3 2 2 3 2 3 3 3 3 3 3 3 3 3 3 3 3 3 4 : O O O O O O O O o @.@.@.@.@.@.",
"@.@.@.@.@.+ ; 3 3 3 3 3 3 3 3 3 3 3 3 3 3 3 3 < < < % < < < < < < , < , , , < 2 3 3 3 3 3 3 3 3 3 : o O O O O o O = 3 @.@.@.@.@.",
"@.@.@.@.@.O o & : 3 2 2 3 3 3 3 3 3 3 3 4 2 2 S T Y T Y Y Y T T Y T T Y J b y 2 , 2 3 3 3 3 3 3 3 3 = o O o O = 3 3 3 @.@.@.@.@.",
"@.@.@.@.O O O O O * 2 5 3 3 3 3 3 3 3 3 4 2 1 ' +.+.+.+.+.+.+.+.+.+.+.+.+.+.+.) v 3 < 3 3 3 3 3 3 3 3 & o & : 4 3 3 3 3 @.@.@.@.",
"@.@.@.@.O O O O O o O = 3 3 3 3 2 1 , < , 2 1 ( +.] L L L U L L L L U Y ! | +.+.+._ a , 2 3 3 3 3 3 4 2 - 3 4 3 3 3 3 3 @.@.@.@.",
"@.@.@.@.O O O O O O o * 4 3 3 3 1 0 J ! M 2 > ~ O.m @ @ # # # # # # # @ < 6 s I +.+.+.b , 2 3 3 3 3 3 3 3 3 3 3 3 3 3 3 @.@.@.@.",
"@.@.@.O O O O O O O O 2 2 4 3 2 6 ] +.+.+.L e E { Z r y y y y y y t t t 8 < @ $ a ] +.+.m , 3 3 3 3 3 3 3 3 3 3 3 3 3 3 3 @.@.@.",
"@.@.@.O O O O O O O * 4 3 3 3 , l +.L q ] +.+.+.+.+.+.+.+.+.+.+.+.+.+.+...~ l 2 # 7 ~ +.+.h , 3 3 3 3 3 3 3 3 3 3 3 3 3 3 @.@.@.",
"@.@.@.O O O O O O o : 3 3 3 3 , l +.L q [ +.+.+.+.+.+.+.+.+.+.+.+.+.+.+.+.+.+.^ w $ 6 _ +.| 8 1 3 3 3 3 3 3 3 3 3 3 3 3 3 @.@.@.",
"@.@.  O O O O O O O 2 2 3 3 3 2 6 ] +.+.+.L e E { Z r t t t t t t t t u l ! +.+.} e # t O.+.A , 3 3 3 3 3 3 3 3 3 3 3 3 3 , @.@.",
"@.@.  O O O O O o * 5 3 3 3 3 3 1 0 F R m 2 , ~ O.B @ > # # # # # # # @ @ , k ..+._ 5 $ F +. .8 2 2 3 3 3 3 3 3 3 3 3 3 3 , @.@.",
"@.@.  O O O O O o ; 4 3 3 3 3 3 3 1 < < , 1 1 ( +.V , V I U U U U U Y J f < # j +.+.V # e X.+.l , 4 3 3 3 3 4 3 3 3 3 3 3 , @.@.",
"@.@.  O O O O O o : 3 3 3 3 3 3 3 3 3 3 3 2 1 ( +.M w +.+.+.+.+.+.+.+.+.+.L 1 # L +.} 3 , / +.K , 2 4 3 3 3 3 3 3 3 3 3 3 , @.@.",
"@.@.  O O O O O o 2 3 3 3 3 3 3 3 3 3 2 3 2 1 / +.C , C Y Y Y Y Y Y I ) +.+.b @ u +.+.i @ D +./ 1 2 4 2 3 3 3 3 3 3 3 3 3 < @.@.",
"@.@.  O O O O O O 2 3 3 3 3 3 3 3 2 , , , 1 1 / +.A , , , , , < , < , 1 T +./ < 7  .+.z @ b +.} 4 2 3 3 3 3 3 3 4 3 3 3 3 , @.@.",
"@.@.  O o O O o O 2 3 3 3 3 3 3 1 6 m K l 1 , / O.C > 1 1 2 1 1 1 1 1 @ n +.} 2 3 } +.v @ b +.} 6 2 3 3 3 3 3 4 4 4 4 4 4 < @.@.",
"@.@.% : : : : : 2 3 3 3 3 3 3 2 3 ^ +.+.+.A 6 P { N 6 9 9 9 9 9 9 0 8 y [ +.T , 0 ..+.j @ m +.] 2 2 3 3 3 3 2 * & * * * * X @.@.",
"@.@., 4 4 4 4 3 3 3 3 3 3 3 3 , j +.R a } +...X.+.X...................+.+.+.p @ j +.+.e # L +.! < 3 3 3 3 3 3 O o O o O o   @.@.",
"@.@., 3 3 3 3 3 3 3 3 3 3 3 3 , x +.G 1 ] +.+.+.+.+.+.+.+.+.+.+.+.+.+.+.} j , 1 ) +./ < 2 ] +.A , 3 3 3 3 3 2 O O O O O O   @.@.",
"@.@., 3 3 3 3 3 3 3 3 3 3 3 3 1 9 | +.X.+.! s Q { H s h h h h h d f h a 7 # , F +.+.f @ s +.+.a < 3 3 3 3 3 : O O O O O O   @.@.",
"@.@., 4 3 3 3 3 3 3 3 3 3 3 3 3 < t R [ J 6 > R o.m @ # @ @ @ @ @ @ @ @ $ w Y +.+.K $ < ~ +.' 2 2 3 3 3 3 4 ; o O O O O O   @.@.",
"@.@., 3 3 3 3 3 3 3 3 3 3 3 3 3 3 1 < 2 , 2 1 ( +.A , l A C V V V C C A ! ..+.+.I 2 $ v +.+.l , 3 3 3 3 4 4 = o O O O O O   @.@.",
"@.@., 3 3 3 3 3 3 3 3 3 3 3 3 3 3 2 3 3 2 2 1 / +.V 0 +.+.+.+.+.+.+.+.+.+.+.| m 1 # a X.+.! < 2 3 3 3 3 3 3 & O O O O O O   @.@.",
"@.@.< 3 3 3 3 3 3 3 3 3 3 3 3 3 3 2 , , < 2 1 / +.A < L ) ( ( ) ( ) ( ^ Y v 8 # $ f ..+.} 0 1 3 3 3 3 3 4 2 O O O O O O O   @.@.",
"@.@.@.3 3 3 3 3 3 3 3 3 3 3 3 3 1 5 b S j < < ^ +.C # , < 1 1 < 1 < 1 , $ @ > 9 F +.+. .t < 3 3 3 3 3 3 3 - O O O O O O O @.@.@.",
"@.@.@.3 3 3 3 3 3 3 3 3 3 3 3 2 2 ! +.+.+.V 3 P { N 6 8 7 8 7 8 7 8 8 9 e j J  .+.+.) e < 3 3 3 3 3 3 3 3 O O O O O O O O @.@.@.",
"@.@.@.3 3 3 3 3 3 3 3 3 3 3 3 < j +.! d | +. .O.O... . . . . . . . .|  .+.+.+.+...C 3 < 3 3 3 3 3 3 3 3 ; O O O O O O O O @.@.@.",
"@.@.@.@.3 3 3 3 3 3 3 2 3 3 3 , c +.D < _ +.+.+.+.+.+.+.+.+.+.+.+.+.+.+.+.X./ M 0 , 2 3 3 3 3 3 3 3 3 3 & o O O O O O O @.@.@.@.",
"@.@.@.@.3 3 4 3 3 4 : O = 3 2 2 0  .+.X.+.~ j k k k k k k k k k k k k k a 0 1 , 1 2 3 3 3 3 3 3 3 3 3 3 3 = o O O O O O @.@.@.@.",
"@.@.@.@.@.3 4 4 : * o O O 2 4 3 < u ~ } L 7 > , , , , < , < , , , , < , < 1 3 3 3 3 3 3 3 3 3 3 3 3 3 3 4 4 : & o O O @.@.@.@.@.",
"@.@.@.@.@.4 3 = O o O O O + 3 3 3 < 1 3 < 1 3 2 3 3 3 3 3 3 3 3 3 3 3 3 3 3 3 3 3 3 3 3 3 3 3 3 3 3 3 3 3 3 4 3 ; + O @.@.@.@.@.",
"@.@.@.@.@.@.O O O O O O O o * 3 3 3 2 2 3 3 3 3 3 3 3 3 3 3 3 3 3 3 3 3 3 3 3 3 3 3 3 3 3 3 3 3 3 3 3 3 3 3 3 3 3 3 @.@.@.@.@.@.",
"@.@.@.@.@.@.O O O O O O O O O = 3 3 3 3 3 3 3 3 3 3 3 3 3 3 3 3 3 3 3 3 3 3 3 3 3 3 3 3 3 3 3 3 3 3 3 3 3 3 3 3 3 4 @.@.@.@.@.@.",
"@.@.@.@.@.@.@.O O O O O O O O o * 3 4 3 3 3 3 3 3 3 3 3 3 3 3 3 3 3 3 3 3 3 3 3 3 3 3 3 3 3 3 3 3 3 3 3 3 3 3 3 3 @.@.@.@.@.@.@.",
"@.@.@.@.@.@.@.@.O O O O O O O O o + 2 3 3 3 3 3 3 3 3 3 3 3 3 3 3 3 3 3 3 3 3 3 3 3 3 3 3 3 3 3 3 3 3 3 3 4 3 3 @.@.@.@.@.@.@.@.",
"@.@.@.@.@.@.@.@.@.O O O O O O O O o o ; 3 3 3 3 3 3 3 3 3 3 3 3 3 3 3 3 3 3 3 3 3 3 4 4 3 3 3 3 3 3 3 3 3 3 3 @.@.@.@.@.@.@.@.@.",
"@.@.@.@.@.@.@.@.@.O O O O O O O O O O o : 4 3 3 3 3 3 3 3 3 3 3 3 3 3 3 3 3 3 3 4 3 : - 3 3 3 3 3 3 3 3 3 3 3 @.@.@.@.@.@.@.@.@.",
"@.@.@.@.@.@.@.@.@.@.O O O O O O O O o * 4 3 3 3 3 3 3 3 3 3 3 3 3 3 2 4 3 3 4 3 : & o o : 3 3 3 3 3 3 3 3 3 @.@.@.@.@.@.@.@.@.@.",
"@.@.@.@.@.@.@.@.@.@.@.O O O O O O O O 3 4 3 3 3 3 3 3 3 3 3 3 3 4 4 3 2 : ; = O o o O O & 3 3 3 3 4 3 3 3 @.@.@.@.@.@.@.@.@.@.@.",
"@.@.@.@.@.@.@.@.@.@.@.@.O O O O O o = 4 3 3 3 3 3 3 3 3 3 3 4 3 = & & O o o o O O O O O O ; 4 3 3 2 3 3 @.@.@.@.@.@.@.@.@.@.@.@.",
"@.@.@.@.@.@.@.@.@.@.@.@.@.@.O O O O 3 3 3 3 3 3 3 3 3 3 3 3 3 3 O o O O O O O O O O O O O O 3 3 3 3 @.@.@.@.@.@.@.@.@.@.@.@.@.@.",
"@.@.@.@.@.@.@.@.@.@.@.@.@.@.@.O o : 3 3 3 3 3 3 3 3 3 3 3 3 3 3 O O O O O O O O O O O O O O - 4 3 @.@.@.@.@.@.@.@.@.@.@.@.@.@.@.",
"@.@.@.@.@.@.@.@.@.@.@.@.@.@.@.@.@.3 3 3 3 3 3 3 3 3 3 3 3 3 3 3 + O O O O O O O O O O O O O O @.@.@.@.@.@.@.@.@.@.@.@.@.@.@.@.@.",
"@.@.@.@.@.@.@.@.@.@.@.@.@.@.@.@.@.@.@.3 3 3 3 3 3 3 3 3 3 3 3 3 O O O O O O O O O O O O O @.@.@.@.@.@.@.@.@.@.@.@.@.@.@.@.@.@.@.",
"@.@.@.@.@.@.@.@.@.@.@.@.@.@.@.@.@.@.@.@.@.3 3 3 3 3 3 3 3 3 3 3 + O O O O O O O O O O @.@.@.@.@.@.@.@.@.@.@.@.@.@.@.@.@.@.@.@.@.",
"@.@.@.@.@.@.@.@.@.@.@.@.@.@.@.@.@.@.@.@.@.@.@.@., , , , , , < ,       .         @.@.@.@.@.@.@.@.@.@.@.@.@.@.@.@.@.@.@.@.@.@.@.@.",
"@.@.@.@.@.@.@.@.@.@.@.@.@.@.@.@.@.@.@.@.@.@.@.@.@.@.@.@.@.x x x g g g @.@.@.@.@.@.@.@.@.@.@.@.@.@.@.@.@.@.@.@.@.@.@.@.@.@.@.@.@.",
"@.@.@.@.@.@.@.@.@.@.@.@.@.@.@.@.@.@.@.@.@.@.@.@.@.@.@.@.@.@.@.@.@.@.@.@.@.@.@.@.@.@.@.@.@.@.@.@.@.@.@.@.@.@.@.@.@.@.@.@.@.@.@.@."
};
