/* XPM */
static char *_537051705364[] = {
/* columns rows colors chars-per-pixel */
"16 16 142 2 ",
"   c #71090B",
".  c #720A0C",
"X  c #760A0D",
"o  c #770B0D",
"O  c #790A0C",
"+  c #780B0D",
"@  c #781315",
"#  c #791315",
"$  c #7A1315",
"%  c #800C0E",
"&  c #820D10",
"*  c #840D10",
"=  c #860E11",
"-  c #910F13",
";  c #930F13",
":  c #801416",
">  c #811417",
",  c #831417",
"<  c #831517",
"1  c #841517",
"2  c #861518",
"3  c #951114",
"4  c #971115",
"5  c #991215",
"6  c #9F1317",
"7  c #931619",
"8  c #90171A",
"9  c #91171A",
"0  c #9C171B",
"q  c #90181B",
"w  c #94181B",
"e  c #95181C",
"r  c #99191D",
"t  c #9B1A1D",
"y  c #9C1A1D",
"u  c #9E1A1E",
"i  c #9F1A1E",
"p  c #A31014",
"a  c #A31015",
"s  c #A31115",
"d  c #A11216",
"f  c #A11217",
"g  c #A21317",
"h  c #A51014",
"j  c #A51115",
"k  c #A51317",
"l  c #A71317",
"z  c #A51318",
"x  c #A41418",
"c  c #A51418",
"v  c #A71418",
"b  c #A71419",
"n  c #A5161A",
"m  c #A7161A",
"M  c #A81519",
"N  c #A01B1E",
"B  c #A6181C",
"V  c #A6181D",
"C  c #A6191D",
"Z  c #A7191D",
"A  c #A71A1E",
"S  c #A61B1F",
"D  c #A9191D",
"F  c #A81A1E",
"G  c #A91A1F",
"H  c #AA1B1F",
"J  c #A61C20",
"K  c #A71C20",
"L  c #A81B20",
"P  c #A81C20",
"I  c #A91C20",
"U  c #A81C21",
"Y  c #A91C21",
"T  c #A81D21",
"R  c #A91F23",
"E  c #AB2327",
"W  c #AD292D",
"Q  c #AD2A2E",
"!  c #B02D30",
"~  c #B13437",
"^  c #B13539",
"/  c #B43C40",
"(  c #B53E41",
")  c #B74447",
"_  c #B74448",
"`  c #A25C5D",
"'  c #A65C5E",
"]  c #BF5A5D",
"[  c #BF5B5E",
"{  c #A96566",
"}  c #AF6C6D",
"|  c #B47577",
" . c #C06164",
".. c #C36265",
"X. c #C66466",
"o. c #C36568",
"O. c #C46669",
"+. c #C5696B",
"@. c #C36A6C",
"#. c #C76B6D",
"$. c #C77073",
"%. c #C87173",
"&. c #CA7678",
"*. c #CB787A",
"=. c #CA797C",
"-. c #CD7D7F",
";. c #CE7F81",
":. c #CE8082",
">. c #CF8284",
",. c #D08688",
"<. c #D08789",
"1. c #D18789",
"2. c #D1888A",
"3. c #D28A8B",
"4. c #D38E8F",
"5. c #D28E90",
"6. c #D48F90",
"7. c #D49193",
"8. c #D59193",
"9. c #D59293",
"0. c #D59394",
"q. c #D59395",
"w. c #D69395",
"e. c #D59495",
"r. c #D69596",
"t. c #D69697",
"y. c #D69698",
"u. c #D69799",
"i. c #D79899",
"p. c #D89A9B",
"a. c #D89A9C",
"s. c #D89B9C",
"d. c #DBA3A4",
"f. c #DAA5A7",
"g. c #DEA8A9",
"h. c #DCABAC",
"j. c #DDB1B2",
"k. c #DEB0B2",
"l. c #E4BDBE",
"z. c #E4C1C2",
"x. c #EAD1D2",
"c. c None",
/* pixels */
"c.c.c.c.c.c.c.| =.c.c.c.c.c.c.c.",
"c.c.c.c.= .   X s k v 4 c.c.c.c.",
"c.c.c.Y i $ 8 t K K Y < @ c.c.c.",
"c.c.Y K K C p j s s C q @ @ c.c.",
"c.= i H s W &.$.%.O.W M q $ 4 c.",
"c.  < G -.h.z.e.u.e.f.( v K v c.",
"c.. 9 G *.f.f.e.7.e.4.e.B Y v c.",
"{ X t G E [ ,.+.:.e.7.i.~ C g $.",
"@.0 C C g.x.j.;.3.4.7.s.! t O } ",
"+.v Y C ^ o.5.1.3.7.i.>.v w   c.",
"c.M G G 0.l.j.i.p.p.1.Y G 1   c.",
"c.5 1 9 X.] ( _ ) ^ v C K t % c.",
"c.c.# # 3 g g C v G Y C K Y c.c.",
"c.c.c.# > K Y K u e 2 i Y c.c.c.",
"c.c.c.c.4 v v g + .   = c.c.c.c.",
"c.c.c.c.c.c. . .' ` c.c.c.c.c.c."
};
