/* XPM */
static char *_537051793251[] = {
/* columns rows colors chars-per-pixel */
"32 32 76 1 ",
"  c #760B0D",
". c #790C0E",
"X c #750F11",
"o c #771214",
"O c #7A1315",
"+ c #7C1618",
"@ c #9C0204",
"# c #9E050A",
"$ c #821417",
"% c #861518",
"& c #8B1619",
"* c #90171B",
"= c #94181B",
"- c #9D1A1E",
"; c #A10B0F",
": c #A20E13",
"> c #A31115",
", c #A41519",
"< c #A8161A",
"1 c #A61A1E",
"2 c #A91B1F",
"3 c #A71C20",
"4 c #A91C21",
"5 c #832224",
"6 c #A92326",
"7 c #AB2629",
"8 c #AC292D",
"9 c #AE2E32",
"0 c #AF3135",
"q c #B03336",
"w c #B1373A",
"e c #B2393D",
"r c #B33D40",
"t c #B64346",
"y c #B74649",
"u c #B94B4E",
"i c #BA4E51",
"p c #BB5154",
"a c #BD5558",
"s c #BF5B5D",
"d c #C15F62",
"f c #C16163",
"g c #C46669",
"h c #C66D6F",
"j c #C76F71",
"k c #C67275",
"l c #C97577",
"z c #CA7779",
"x c #CB7A7C",
"c c #C77E81",
"v c #CF8283",
"b c #D08385",
"n c #D69798",
"m c #D99B9C",
"M c #D59395",
"N c #D99FA0",
"B c #DBA2A3",
"V c #DDA7A8",
"C c #DFACAD",
"Z c #E1B2B3",
"A c #E5BDBE",
"S c #E6BFC0",
"D c #E5C2C3",
"F c #E9C6C7",
"G c #E4CACB",
"H c #EACBCB",
"J c #ECD1D2",
"K c #F1DBDB",
"L c #ECE2E2",
"P c #EFE8E9",
"I c #F4E2E2",
"U c #F7EBEB",
"Y c #F8EDED",
"T c #FAF4F4",
"R c #FDFCFC",
"E c None",
/* pixels */
"EEEEEEEEEEEEEEEEEEEEEEEEEEEEEEEE",
"EEEEEEEEEEEE55558888EEEEEEEEEEEE",
"EEEEEEEEEXXXoXXO,222112EEEEEEEEE",
"EEEEEEEE-OOOOOO+3333333%EEEEEEEE",
"EEEEEE333&oOO$&&133333-oOOEEEEEE",
"EEEEE33331+&-333333333$OO+OEEEEE",
"EEEE333333333312333333&OOOOOEEEE",
"EEEE3333333122113113334=OOOOEEEE",
"EEE133333333111121,;,234=OOo$EEE",
"EEoO*1332>;gKIIIIIJne>333&O=33EE",
"EEOoo%326kqkLssdsfxFTc>1321331EE",
"EEOOo=3>NFKGLBBBBBx8sRb:333333EE",
"E+oOO13>mHKGLVBBNBJTpaRt,333323E",
"E+OO$3326j0kF8ddfs6xR8AC:333333E",
"E+Oo&3332##bFzIIKUI7FMfI3233333E",
"E+Oo*3323f7kH##:;;IxbDyY7133323E",
"E3-1132>mHJAKmmmmVTtVCpU614=$$$E",
"E623333>VDLJPZZZZCprRumF>13&oOOE",
"E61333317xekG6aappvTn8Rf>33&oOOE",
"E3233333,#@vGzIIIIHf6KA,233OOOOE",
"E611333,uDxxG700wqwkYD6,33=oOOOE",
"EE23333>DCTTRYUUYYTKx<1333$oOOEE",
"EE33-$=,fJBtuuuuuue1:132331%OoEE",
"EEE&OOO-<61,>,,,,,,133333333=EEE",
"EEEO+OOO-22323333333333333334EEE",
"EEEEoOOOO=333333333333333333EEEE",
"EEEEEOOOO+1333334433-&33333EEEEE",
"EEEEEEO+O=333333-=&+oo&333EEEEEE",
"EEEEEEEO%3333333OoOOOOO14EEEEEEE",
"EEEEEEEEE3333331OOOOOOOEEEEEEEEE",
"EEEEEEEEEEE,,,,,.   .EEEEEEEEEEE",
"EEEEEEEEEEEEEEEEEEEEEEEEEEEEEEEE"
};
